<svg width="17" height="18" viewBox="0 0 17 18" fill="none" xmlns="http://www.w3.org/2000/svg">
<path d="M8.5 15.663C12.0208 15.663 14.875 12.8088 14.875 9.28796C14.875 5.76715 12.0208 2.91296 8.5 2.91296C4.97918 2.91296 2.125 5.76715 2.125 9.28796C2.125 12.8088 4.97918 15.663 8.5 15.663Z" stroke="#888788" stroke-width="1.0625" stroke-linecap="round" stroke-linejoin="round"/>
<path fill-rule="evenodd" clip-rule="evenodd" d="M9.43972 8.79165L11.6875 8.79165C11.9809 8.79165 12.2188 9.0295 12.2188 9.3229C12.2188 9.6163 11.9809 9.85415 11.6875 9.85415L9.39926 9.85415C9.2111 10.1524 8.8787 10.3505 8.50002 10.3505C7.91322 10.3505 7.43752 9.87477 7.43752 9.28796C7.43752 8.89469 7.65119 8.55132 7.96877 8.36761L7.96877 5.42706C7.96877 5.13366 8.20662 4.89581 8.50002 4.89581C8.79342 4.89581 9.03127 5.13366 9.03127 5.42706L9.03127 8.36761C9.20408 8.46757 9.34613 8.61481 9.43972 8.79165Z" fill="#888788"/>
</svg>
