<svg width="150" height="150" viewBox="0 0 150 150" fill="none" xmlns="http://www.w3.org/2000/svg">
<path d="M90.2958 75C90.2958 83.4288 83.4616 90.2616 75.0313 90.2616C66.6009 90.2616 59.7667 83.4288 59.7667 75C59.7667 66.5712 66.6009 59.7384 75.0313 59.7384C83.4616 59.7384 90.2958 66.5712 90.2958 75Z" stroke="#F4F4F3" stroke-width="9.375" stroke-linejoin="round"/>
<path d="M57.2931 29.3283C60.7119 25.4825 62.4213 23.5597 64.1406 22.3329C70.6567 17.6834 79.4059 17.6834 85.9219 22.3329C87.6412 23.5597 89.3506 25.4825 92.7694 29.3283V29.3283C93.8558 30.5503 94.3989 31.1613 94.9785 31.7109C97.1235 33.7454 99.7192 35.2438 102.554 36.0839C103.32 36.3108 104.121 36.4757 105.723 36.8054V36.8054C110.758 37.8417 113.276 38.3599 115.196 39.2332C122.488 42.5509 126.867 50.1352 126.094 58.1092C125.89 60.2082 125.08 62.6462 123.461 67.5222V67.5222C122.946 69.0725 122.689 69.8477 122.502 70.6238C121.812 73.5004 121.812 76.4996 122.502 79.3762C122.689 80.1523 122.946 80.9275 123.461 82.4778V82.4778C125.08 87.3538 125.89 89.7918 126.094 91.8908C126.867 99.8648 122.488 107.449 115.196 110.767C113.276 111.64 110.758 112.158 105.723 113.195V113.195C104.121 113.524 103.32 113.689 102.554 113.916C99.7192 114.756 97.1235 116.255 94.9785 118.289C94.3989 118.839 93.8558 119.45 92.7694 120.672V120.672C89.3506 124.517 87.6412 126.44 85.9219 127.667C79.4059 132.317 70.6567 132.317 64.1406 127.667C62.4213 126.44 60.7119 124.517 57.2931 120.672V120.672C56.2067 119.45 55.6636 118.839 55.084 118.289C52.939 116.255 50.3433 114.756 47.5088 113.916C46.7429 113.689 45.9418 113.524 44.3395 113.195V113.195C39.3041 112.158 36.7863 111.64 34.8668 110.767C27.5746 107.449 23.1959 99.8648 23.9689 91.8908C24.1724 89.7917 24.9821 87.3538 26.6015 82.4778V82.4778C27.1164 80.9275 27.3738 80.1523 27.5601 79.3762C28.2506 76.4996 28.2506 73.5004 27.5601 70.6237C27.3738 69.8477 27.1164 69.0725 26.6015 67.5222V67.5222C24.9821 62.6462 24.1724 60.2083 23.9689 58.1092C23.1959 50.1352 27.5746 42.5509 34.8668 39.2332C36.7863 38.3599 39.3041 37.8417 44.3395 36.8054V36.8054C45.9418 36.4757 46.7429 36.3108 47.5088 36.0839C50.3433 35.2438 52.939 33.7454 55.084 31.7109C55.6636 31.1613 56.2067 30.5503 57.2931 29.3283V29.3283Z" stroke="#F4F4F3" stroke-width="9.375" stroke-linejoin="round"/>
</svg>
