<svg width="17" height="18" viewBox="0 0 17 18" fill="none" xmlns="http://www.w3.org/2000/svg">
<path d="M13.2812 9.28796C13.2812 9.58137 13.0434 9.81921 12.75 9.81921C12.4566 9.81921 12.2188 9.58137 12.2188 9.28796C12.2188 8.99456 12.4566 8.75671 12.75 8.75671C13.0434 8.75671 13.2812 8.99456 13.2812 9.28796Z" fill="#888788"/>
<path d="M2.13917 7.16297H14.8608M9.5625 9.28797H10.9792M7.225 14.9546H9.775C11.8998 14.9546 12.9623 14.9546 13.7071 14.4135C13.9476 14.2388 14.1591 14.0272 14.3339 13.7867C14.875 13.0419 14.875 11.9795 14.875 9.85464V8.72131C14.875 6.59646 14.875 5.53403 14.3339 4.78925C14.1591 4.54871 13.9476 4.33718 13.7071 4.16243C12.9623 3.62131 11.8998 3.62131 9.775 3.62131H7.225C5.10015 3.62131 4.03773 3.62131 3.29294 4.16243C3.05241 4.33718 2.84088 4.54871 2.66612 4.78925C2.125 5.53403 2.125 6.59646 2.125 8.72131V9.85464C2.125 11.9795 2.125 13.0419 2.66612 13.7867C2.84088 14.0272 3.05241 14.2388 3.29294 14.4135C4.03773 14.9546 5.10015 14.9546 7.225 14.9546Z" stroke="#888788" stroke-width="1.0625" stroke-linecap="round" stroke-linejoin="round"/>
</svg>
