<svg width="66" height="55" viewBox="0 0 66 55" fill="none" xmlns="http://www.w3.org/2000/svg">
<path d="M2.29688 27.5C2.29688 19.579 2.29687 15.6185 3.59091 12.4944C5.31631 8.3289 8.62577 5.01944 12.7912 3.29404C15.9154 2 19.8759 2 27.7969 2H37.9969C45.9179 2 49.8785 2 53.0024 3.29404C57.1681 5.01944 60.4773 8.3289 62.2028 12.4944C63.4969 15.6185 63.4969 19.579 63.4969 27.5C63.4969 35.421 63.4969 39.3816 62.2028 42.5056C60.4773 46.6712 57.1681 49.9805 53.0024 51.706C49.8785 53 45.9179 53 37.9969 53H27.7969C19.8759 53 15.9154 53 12.7912 51.706C8.62577 49.9805 5.31631 46.6712 3.59091 42.5056C2.29687 39.3816 2.29688 35.421 2.29688 27.5Z" stroke="#340E85" stroke-width="4" stroke-linejoin="round"/>
<path d="M2.29688 13.9L14.1114 23.0885C22.1001 29.3017 26.0945 32.4082 30.6573 33.0151C32.1448 33.2127 33.6517 33.2127 35.1392 33.0148C39.702 32.4082 43.696 29.3013 51.6846 23.0878L63.4969 13.9" stroke="#340E85" stroke-width="4" stroke-linejoin="round"/>
</svg>
