<svg width="60" height="60" viewBox="0 0 60 60" fill="none" xmlns="http://www.w3.org/2000/svg">
<g clip-path="url(#clip0_437_97)">
<path d="M3.05552 14.5778L5.30549 14.5651C5.30507 14.4923 5.30114 14.4196 5.29367 14.3472L3.05552 14.5778ZM45.2981 56.8038L45.5285 54.5658C45.4562 54.5583 45.3836 54.5544 45.3107 54.5538L45.2981 56.8038ZM15.1667 23.8595L14.8115 21.6377C14.0918 21.7528 13.4724 22.2094 13.1495 22.8629C12.8266 23.5163 12.8403 24.2857 13.1862 24.9273L15.1667 23.8595ZM36.0128 44.6973L34.9457 46.6782C35.5871 47.0238 36.3563 47.0373 37.0097 46.7145C37.6628 46.3917 38.1194 45.7725 38.2346 45.0528L36.0128 44.6973ZM7.66598 7.66548C10.8879 4.44483 16.112 4.44483 19.3339 7.66548L22.5152 4.48287C17.5361 -0.49429 9.46373 -0.49429 4.48463 4.48287L7.66598 7.66548ZM19.3339 7.66548C22.5553 10.8856 22.5553 16.1062 19.3339 19.3263L22.5152 22.5089C27.4948 17.5313 27.4948 9.46053 22.5152 4.48287L19.3339 7.66548ZM40.5464 40.533C43.7684 37.3125 48.9923 37.3125 52.2143 40.533L55.3958 37.3506C50.4164 32.3733 42.3443 32.3733 37.3652 37.3506L40.5464 40.533ZM52.2143 40.533C55.4357 43.7532 55.4357 48.9738 52.2143 52.194L55.3958 55.3767C60.3752 50.3988 60.3752 42.3282 55.3958 37.3506L52.2143 40.533ZM18.2726 41.5914C9.79505 33.1173 5.35298 22.9338 5.30549 14.5651L0.805558 14.5906C0.861253 24.4033 5.97866 35.6652 15.0912 44.7741L18.2726 41.5914ZM5.29367 14.3472C5.04743 11.958 5.83925 9.49149 7.66598 7.66548L4.48463 4.48287C1.65952 7.30689 0.438166 11.1293 0.817378 14.8085L5.29367 14.3472ZM52.2143 52.194C50.3876 54.0201 47.9195 54.8118 45.5285 54.5658L45.0674 59.0421C48.7472 59.421 52.5707 58.2006 55.3958 55.3767L52.2143 52.194ZM45.3107 54.5538C36.938 54.5064 26.7501 50.0658 18.2726 41.5914L15.0912 44.7741C24.2038 53.883 35.4695 58.9983 45.2852 59.0538L45.3107 54.5538ZM19.3339 19.3263C18.0552 20.6045 16.4673 21.373 14.8115 21.6377L15.5219 26.0813C18.082 25.672 20.544 24.4793 22.5152 22.5089L19.3339 19.3263ZM25.6972 34.1697C22.1334 30.6072 19.2684 26.726 17.1472 22.7917L13.1862 24.9273C15.5214 29.2583 18.6522 33.4902 22.5159 37.3524L25.6972 34.1697ZM38.2346 45.0528C38.4992 43.3983 39.2678 41.8113 40.5464 40.533L37.3652 37.3506C35.3939 39.321 34.2005 41.7822 33.791 44.3421L38.2346 45.0528ZM37.0799 42.7167C33.1439 40.596 29.2611 37.7322 25.6972 34.1697L22.5159 37.3524C26.3795 41.2146 30.6131 44.3439 34.9457 46.6782L37.0799 42.7167Z" fill="#340E85"/>
</g>
<defs>
<clipPath id="clip0_437_97">
<rect width="60" height="60" fill="white"/>
</clipPath>
</defs>
</svg>
