<svg width="1990" height="75" viewBox="0 0 1990 75" fill="none" xmlns="http://www.w3.org/2000/svg">
<path d="M1469.81 74.0899L1467.44 72.832C1465.22 72.9667 1463.23 72.8388 1461.45 72.7899C1459.67 72.731 1458.1 72.6788 1456.71 72.6333C1455.32 72.5912 1454.11 72.5542 1453.04 72.5222C1451.94 72.4228 1450.99 72.3386 1450.17 72.2645C1446.87 71.9782 1445.56 71.9732 1444.33 71.9766C1443.1 71.9395 1441.97 72.086 1438.97 71.4579C1436.01 70.8416 1431.01 69.9862 1423.03 66.9062C1421.52 66.1687 1419.87 65.1667 1417.81 64.1109C1416.78 63.5872 1415.68 63.0281 1414.53 62.437C1413.33 61.8594 1412.36 61.2196 1411.18 60.583C1410.04 59.9448 1408.86 59.2813 1407.65 58.601C1406.41 57.9207 1405.43 57.2606 1404.27 56.5752C1403.15 55.8949 1402.01 55.2045 1400.87 54.509C1399.85 53.8657 1398.83 53.2191 1397.81 52.5725C1393.68 49.9641 1390.3 47.8743 1387.62 46.2964C1387.28 46.0893 1386.95 45.8856 1386.62 45.6869C1386.33 45.5286 1386.04 45.3737 1385.76 45.2238C1385.21 44.919 1384.7 44.6243 1384.23 44.3414C1383.76 44.0585 1383.34 43.7874 1382.98 43.5297C1382.62 43.3209 1382.33 43.1458 1382.09 42.9622C1382.08 43.0784 1380.44 42.3324 1378.86 41.8188C1377.26 41.4433 1375.76 41.051 1375.8 41.3996C1375.16 40.5643 1373.42 40.2831 1371.53 39.751C1370.45 39.6584 1369.3 39.5606 1368.15 39.4125C1367.56 39.3535 1367.03 39.2188 1366.39 39.1818C1365.74 39.1616 1365.1 39.1279 1364.47 39.0723C1362.62 38.7473 1365.91 38.7524 1367.25 38.5941C1365.4 38.3634 1363.34 38.3297 1361.39 38.1243C1360.4 37.9795 1359.41 38.1108 1358.41 38.1007L1355.42 38.1243C1354.21 38.1866 1353.44 38.4846 1352.85 38.6665C1352.27 38.8601 1351.93 39.0168 1351.85 39.133C1351.72 39.3805 1352.55 39.3973 1354.83 39.1902C1353.9 39.2424 1353.03 39.4765 1351.98 39.6045C1351.47 39.6735 1350.93 39.7476 1350.37 39.8234C1349.78 39.8621 1349.25 39.9985 1348.72 40.1635C1347.65 40.4885 1346.44 40.6721 1345.24 41.0577C1344.65 41.2867 1344.04 41.5124 1343.41 41.7313C1342.78 41.9788 1342.12 42.09 1341.45 42.4722C1340.09 43.1828 1338.7 43.6173 1337.06 44.6394C1336.24 45.0907 1335.41 45.5521 1334.57 46.022C1333.64 46.6063 1332.7 47.2007 1331.74 47.8069C1327.69 50.3396 1323.15 53.6704 1316.53 57.7119C1310.01 61.6287 1301.67 66.0895 1291.33 69.2183C1288.81 70.0182 1286.12 70.5823 1283.46 71.239C1282.13 71.5405 1280.78 71.8907 1279.43 72.1332C1278.08 72.3319 1276.73 72.5306 1275.37 72.7293C1272.67 73.0795 1269.86 73.5595 1267.18 73.7329C1264.51 73.8609 1261.83 73.9889 1259.13 74.1169C1256.43 74.2937 1253.72 74.1909 1250.99 74.0781C1248.25 73.9552 1245.54 73.903 1242.74 73.6605C1239.88 73.317 1237.01 72.9415 1234.14 72.5356L1231.99 72.2258L1229.82 71.756L1225.5 70.7591C1224.06 70.4139 1222.62 70.0737 1221.2 69.6982L1217.06 68.3291C1214.31 67.3979 1211.52 66.4634 1209.11 65.3149C1203.94 63.146 1199.5 60.7076 1195.45 58.3518C1187.46 53.5862 1181.56 49.2686 1176.64 46.453C1171.72 43.6122 1167.97 42.1742 1163.82 41.2244C1161.89 40.5913 1159.43 40.5542 1157.25 40.1332C1155.98 40.0928 1154.72 40.054 1153.46 40.0153L1151.59 39.9177C1150.97 39.8705 1150.35 39.9766 1149.73 39.9901C1148.5 40.0591 1147.27 40.1096 1146.06 40.1399C1145.42 40.1248 1144.89 40.2174 1144.37 40.31L1142.8 40.5407C1140.6 40.6889 1138.9 41.3153 1137.06 41.6589C1133.6 42.7871 1130.33 44.0467 1126.67 46.2004C1122.92 48.3626 1119.12 50.9121 1114.67 53.8186C1113.56 54.536 1112.62 55.1809 1111.43 55.91C1110.25 56.6341 1109.1 57.3397 1107.98 58.0268C1105.88 59.3773 1103.21 60.7379 1100.97 61.9538C1098.8 63.1931 1096.18 64.2658 1093.98 65.2577C1092.85 65.746 1091.77 66.2124 1090.74 66.6603C1089.61 67.0527 1088.54 67.4249 1087.52 67.7802C1088.49 67.3188 1089.72 66.8456 1090.96 66.2629C1092.17 65.6736 1093.49 65.0269 1094.9 64.3416C1096.26 63.6579 1097.87 62.9574 1099.21 62.1979C1100.55 61.4368 1101.93 60.6571 1103.3 59.8791C1103.98 59.4851 1104.66 59.0927 1105.33 58.7038C1105.91 58.3215 1106.49 57.9409 1107.06 57.5671C1108.19 56.816 1109.28 56.0785 1110.28 55.3712C1112.23 53.9702 1113.51 52.8217 1114.42 51.8248C1113.06 52.6078 1111.79 53.3522 1110.63 54.0628C1109.33 54.834 1108.12 55.5531 1106.98 56.2267C1105.81 56.9154 1104.87 57.5519 1103.72 58.1817C1102.6 58.8098 1101.55 59.3975 1100.56 59.9532C1099.57 60.5055 1098.63 61.0242 1097.74 61.5176C1096.77 61.9958 1095.78 62.4337 1094.86 62.8428C1092.98 63.6612 1091.21 64.3567 1089.4 64.9326C1088.12 65.9059 1085.15 67.2447 1081.2 68.7165C1079.18 69.3883 1076.84 69.9643 1074.38 70.5974C1073.14 70.8972 1071.86 71.207 1070.56 71.5202C1069.26 71.7594 1067.93 71.9462 1066.59 72.1551C1063.92 72.5457 1061.14 72.9835 1058.46 73.2799C1055.83 73.4601 1053.25 73.6386 1050.77 73.8087C1049.54 73.9013 1048.33 73.9905 1047.15 74.0781C1045.98 74.1674 1044.85 74.1387 1043.76 74.1876C1041.59 74.2516 1039.61 74.3476 1037.9 74.4975C1036.22 74.0344 1034.66 73.7329 1032.95 73.1183C1029.91 72.9533 1026.83 72.7512 1023.75 72.5121C1021.25 72.1045 1018.88 71.4074 1016.67 70.8837C1014.47 70.2893 1012.33 69.8531 1010.5 69.1425C1008.64 68.4773 1006.9 67.8526 1005.26 67.2666C1004.45 66.9652 1003.67 66.6721 1002.91 66.3909C1002.19 66.0861 1001.53 65.7713 1000.88 65.4749C998.317 64.2776 996.022 63.2335 994.24 62.2972C992.555 61.3441 991.13 60.5376 989.917 59.8505C987.403 58.4545 986.225 57.594 985.191 56.9609C984.196 56.3412 983.593 55.9657 983.036 55.6188C981.844 54.9166 981.045 54.4518 977.877 52.4681C976.452 51.5672 974.502 50.3329 971.749 48.5917C970.557 47.876 969.192 47.0559 967.622 46.1112C966.91 45.739 966.153 45.3416 965.347 44.9173C964.548 44.4896 963.689 43.9861 962.87 43.6897C961.915 43.2738 961.01 42.8056 960.142 42.4065C959.269 42.1203 958.445 41.8172 957.656 41.4989C956.891 41.1251 956.058 40.96 955.273 40.7529C954.488 40.5424 953.738 40.3151 953.008 40.0743C951.392 39.7813 949.817 39.5287 948.348 39.1919C946.744 38.9966 945.091 38.9157 943.572 38.7389C942.034 38.4998 940.551 38.5907 939.11 38.5823C938.387 38.5806 937.676 38.5789 936.974 38.5772C936.263 38.5654 935.556 38.5537 934.976 38.6682C933.746 38.8197 932.538 38.9713 931.327 39.1212C930.116 39.2744 929.138 39.7072 928.019 39.9817C929.303 39.6937 932.692 38.1192 928.346 38.9544C928.256 39.2138 927.496 39.4731 926.347 39.6988C925.282 40.1113 923.847 40.4986 922.314 40.9179C921.552 41.2244 920.779 41.5359 920.031 41.8373C919.275 42.1506 918.557 42.3712 917.867 42.7972C916.506 43.5499 915.449 44.205 915.097 44.6765C914.529 44.9678 913.734 45.4797 912.867 45.9933C911.964 46.5507 911.066 47.0458 909.913 47.7935C907.514 49.3107 904.906 50.961 902.666 52.3772C900.373 53.827 897.841 55.1977 896.646 55.7299C895.396 56.2822 895.23 56.0903 896.777 54.7313C895.955 55.415 894.372 56.6662 891.924 58.1009C890.746 58.8082 889.5 59.5558 888.285 60.285C887.109 61.0192 885.624 61.6725 884.463 62.2838C879.645 64.6767 877.18 65.9885 884.882 62.8883C883.823 63.3683 882.769 63.8448 881.722 64.3197L880.152 65.0219L878.462 65.6399C876.213 66.4549 873.994 67.2312 871.843 67.9503C869.673 68.6356 867.456 69.0869 865.407 69.5753C863.344 70.003 861.385 70.5183 859.585 70.68C861.682 70.323 863.782 69.6679 865.863 69.1492C867.923 68.5581 870.059 68.1052 872.009 67.3575C870.05 68.0344 867.974 68.4049 866.038 68.9034C864.081 69.358 862.17 69.8228 860.312 70.1983C856.599 70.7557 853.065 71.2491 849.695 71.6869C843.16 72.0827 837.266 72.5407 831.704 72.1888C820.758 71.9951 810.033 70.0518 800.152 66.1703C804.024 67.4485 808.221 68.1338 812.302 68.9269C809.855 68.3595 807.468 67.7785 805.157 67.1942C802.864 66.5812 800.76 65.7628 798.665 65.0674C797.627 64.7036 796.607 64.3466 795.606 63.9947C794.634 63.6242 793.761 63.21 792.864 62.8294C791.089 62.0531 789.385 61.3071 787.762 60.5965C784.818 59.1449 782.164 57.8365 779.859 56.6999C777.757 55.6238 775.904 54.7734 774.337 54.2042C778.618 57.045 783.308 60.0694 789.088 62.8462C788.204 62.4404 787.329 62.0396 786.464 61.6422C785.69 61.228 784.926 60.8205 784.171 60.4163C782.679 59.5979 781.222 58.7997 779.795 58.0167C778.462 57.2387 777.302 56.491 776.088 55.7467C774.935 55.0193 773.632 54.2413 772.693 53.5963C768.551 50.8784 765.156 48.5092 762.246 46.6551C756.316 42.8528 752.135 40.6132 746.574 38.8955C747.255 39.0639 747.971 39.1599 748.643 39.3586L750.616 40.0456C749.76 39.7173 748.763 39.0925 747.359 38.7995C745.966 38.4661 744.534 37.8111 742.497 37.6006C741.52 37.4406 740.498 37.2587 739.423 37.0499C738.298 36.9017 736.992 36.8882 735.708 36.7771C735.056 36.7283 734.393 36.6777 733.719 36.6255C733.044 36.5498 732.356 36.5144 731.656 36.5649C730.259 36.6037 728.818 36.6306 727.328 36.639C721.55 36.9792 716.207 37.8228 710.62 40.1046C704.952 42.324 698.626 46.4109 690.389 51.6295C688.372 52.8975 685.976 54.2834 683.789 55.5884C681.316 56.9171 678.837 58.2558 676.234 59.5238C673.407 60.7312 670.755 62.0144 667.789 63.055C666.284 63.5552 664.783 64.0519 663.291 64.5487C661.786 65.0202 660.333 65.5574 658.758 65.8723C655.664 66.5644 652.591 67.3339 649.559 67.8324C646.525 68.2332 643.528 68.5986 640.588 68.9269C637.681 69.1779 634.916 69.1677 632.167 69.2671C630.8 69.2974 629.448 69.326 628.111 69.3547C626.778 69.289 625.461 69.2233 624.16 69.1576C621.571 68.9977 619.048 68.8411 616.603 68.6895C614.11 68.3713 611.679 67.9839 609.36 67.6252C608.202 67.4383 607.065 67.2531 605.953 67.073C604.846 66.8305 603.764 66.5425 602.71 66.2798C600.613 65.7275 598.61 65.2004 596.713 64.7002C593.075 63.4659 589.859 62.2569 587.26 61.1488C584.779 59.9516 582.746 58.9193 581.201 58.1009L587.509 60.3742C589.634 61.0932 591.977 61.6388 594.192 62.2434C592.233 61.489 590.228 60.7666 588.354 59.9549L583.008 57.3279C581.16 56.4708 579.746 55.4773 578.117 54.5511L575.757 53.1349C574.993 52.6618 574.334 52.1852 573.618 51.7103C574.155 52.0269 574.726 52.6618 575.476 53.4482C576.238 54.2531 577.127 55.1893 578.006 56.1155C578.918 57.045 579.721 57.9981 580.679 58.7121C581.613 59.4329 582.458 59.9734 583.078 60.1603C579.91 58.8233 576.544 56.9255 572.633 54.7094C570.863 53.6048 568.957 52.4159 566.924 51.1479C565.121 49.9574 563.206 48.691 561.189 47.3573C559.32 46.1213 557.308 44.7674 555.459 43.6543C554.52 43.0936 553.505 42.3796 552.575 41.9064C551.636 41.3894 550.678 40.864 549.704 40.3268C548.728 39.7358 547.771 39.4394 546.792 38.9544C545.816 38.5149 544.842 37.9963 543.813 37.7168C542.798 37.3766 541.776 37.0146 540.749 36.6306C539.663 36.3713 538.56 36.1103 537.443 35.8442L535.765 35.4182L533.917 35.1874C532.678 35.0258 531.435 34.8422 530.171 34.6435C528.792 34.5896 527.399 34.5341 525.993 34.4802C524.586 34.4145 523.166 34.2815 521.734 34.4145C520.3 34.4684 518.854 34.5206 517.397 34.5745C516.642 34.5627 515.97 34.6621 515.307 34.7699L513.279 35.046L511.227 35.2936C510.523 35.3508 509.947 35.5899 509.294 35.7196C508.039 36.0614 506.697 36.2365 505.456 36.6542C500.449 38.0636 495.612 40.5812 489.905 44.136C484.215 47.6621 477.762 52.3772 469.32 56.8868C468.259 57.4441 467.278 58.0217 466.141 58.5572L462.651 60.1334L459.143 61.6809L455.34 63.0163C452.789 63.8869 450.273 64.7996 447.559 65.3671C444.886 65.9666 442.216 66.7244 439.534 67.1133C436.852 67.4973 434.165 67.8576 431.49 68.1944C428.82 68.5194 426.271 68.5043 423.668 68.6508C418.495 69.0162 413.364 68.6002 408.299 68.3948C398.025 67.4855 387.587 65.3284 378.683 61.7921C369.875 58.2491 362.957 54.0409 357.324 50.4255C354.718 48.7196 352.184 47.0592 349.725 45.4511C348.519 44.6394 347.485 44.04 346.421 43.3799C345.376 42.7602 344.301 42.0209 343.351 41.5578C342.384 41.0358 341.437 40.5222 340.507 40.0204C339.58 39.4866 338.698 39.2104 337.835 38.7945C336.967 38.4392 336.147 37.9677 335.309 37.71C334.483 37.4355 333.675 37.1695 332.89 36.9101C331.377 36.277 329.757 36.0783 328.327 35.7112C327.59 35.5613 326.941 35.3273 326.209 35.2447C325.479 35.1622 324.775 35.0814 324.098 35.0056C322.731 34.8692 321.566 34.6183 320.364 34.5779C319.149 34.5543 318.064 34.5341 317.116 34.5173C315.585 34.5425 314.409 34.4701 313.52 34.6065C312.632 34.7328 312.031 34.844 311.653 34.9467C310.896 35.1504 311.025 35.3222 311.52 35.467C312.015 35.6101 312.878 35.7213 313.621 35.8004C314.365 35.8762 314.989 36.0648 315.019 36.085C314.128 35.9756 313.322 36.0194 312.592 36.0362C311.863 36.0412 311.209 36.0479 310.622 36.0513C309.445 36.0479 308.532 36.021 307.799 35.9856C306.391 35.9856 305.778 36.0378 305.15 36.0008C303.978 36.0159 302.772 35.755 297.631 37.1106C296.25 37.5416 296.549 37.7673 297.281 37.6595C298.078 37.678 299.395 37.577 300.193 37.4507C299.093 37.7286 297.937 37.8498 296.984 38.2253C296.027 38.5874 295.133 38.9106 294.351 39.1733C293.561 39.3939 292.905 39.7156 292.401 39.916C291.894 40.1096 291.538 40.1955 291.376 40.1382C292.661 39.4377 293.432 38.914 293.925 38.6177C294.408 38.2708 294.586 37.9845 294.659 37.7201C294.809 37.1863 294.523 36.7519 295.536 35.9621C290.967 37.3345 286.634 39.6078 281.825 42.5025L283.117 42.6827C282.318 43.1845 281.298 43.6527 279.988 44.2151C278.69 44.7658 276.933 45.633 274.9 46.6433C273.915 47.135 272.647 47.8171 271.348 48.5327C270.013 49.2871 268.554 50.1139 266.947 51.0216C263.641 52.9076 259.599 55.3207 254.039 58.0537C249.352 60.3355 243.988 62.3511 238.38 63.8751C235.535 64.5352 232.669 65.3604 229.766 65.8083C226.861 66.2343 223.932 66.6351 220.995 67.0106C215.242 67.312 209.471 67.7465 203.672 67.3356C200.769 67.1975 197.903 67.1622 194.901 66.6772L190.449 66.0743C188.966 65.8622 187.484 65.6921 186.017 65.3065C183.094 64.6026 180.105 63.9947 177.274 63.1291C174.509 62.176 171.641 61.2768 169.016 60.2041C166.507 59.0675 163.834 57.9628 161.516 56.7487C159.297 55.5244 156.854 54.2901 154.861 53.0491C146.541 48.036 140.194 43.326 134.241 40.1518C134.246 40.4498 135.383 41.2008 137.229 42.5985C139.174 44.0012 141.7 45.8249 144.232 47.6503C140.648 45.3366 135.657 41.8677 132.657 40.7916C135.763 41.9838 133.452 40.5609 130.94 39.1144C128.454 37.9558 125.825 36.6828 128.058 37.5265C124.149 35.4788 119.796 33.7309 114.358 33.096C111.817 32.5235 108.766 32.601 105.889 32.3921C104.432 32.2372 102.97 32.451 101.512 32.4746C100.064 32.5555 98.5704 32.5555 97.1662 32.675C91.6642 33.352 86.7009 34.3842 82.2395 36.0766C77.7504 37.8633 73.4594 39.9312 69.1222 42.3358C68.4385 42.1843 64.2625 42.2802 58.1735 42.585C55.0473 42.7618 51.6149 42.9925 47.7866 43.1357C45.9242 43.1895 44.0089 43.2451 42.0682 43.3024C40.1068 43.2923 38.1547 43.2401 36.267 43.166C35.3208 43.1256 34.3954 43.0919 33.4722 43.0246C32.5514 42.9168 31.6329 42.8107 30.7236 42.7046C28.9394 42.4773 27.2543 42.2213 25.6912 41.9502C22.4522 41.152 19.8094 40.406 17.6316 39.5203C13.1978 37.5652 11.0868 36.08 10.8313 35.5192C9.72169 35.6489 8.62129 35.8004 7.57384 35.9671C7.03746 36.0379 6.56553 36.1692 6.01533 36.1978C5.45823 36.2214 4.91954 36.2433 4.41078 36.2635C2.37114 36.3645 0.761988 36.5094 0 36.6374C0.63077 36.346 3.4232 36.0749 6.54712 35.8459C7.9652 35.5748 9.48917 35.3542 10.9717 35.2077C12.3253 34.8995 13.5685 34.5998 14.662 34.4533C15.0671 34.7244 15.4953 35.014 15.9166 35.2666C20.7832 33.8336 21.3311 33.2206 21.7063 32.8501C21.9066 32.6481 22.0931 32.441 22.8251 32.0368C23.1842 31.8735 23.7206 31.4845 24.4596 31.0652C25.2285 30.6357 26.2092 30.0868 27.4707 29.3829C27.3556 28.9215 24.8786 30.0262 21.6971 31.4104C18.5686 32.8013 14.8346 33.8369 11.0868 34.6587C14.4386 33.7797 17.4521 32.8653 20.1731 31.439C20.873 31.1241 21.5429 30.8227 22.1759 30.5398C22.8527 30.1693 23.5019 29.8359 24.1212 29.5446C24.7405 29.2533 25.3275 29.004 25.8777 28.8019C26.4486 28.5679 27.0149 28.317 27.5122 28.1688C31.0159 25.7894 30.7005 25.5991 30.4197 25.4358C30.2908 25.3431 30.2171 25.2152 30.7696 24.6898C31.0458 24.4271 31.4809 24.0633 32.1416 23.5548C32.8276 23.0311 33.6173 22.4451 35.0445 21.4465C37.1141 20.1768 39.2458 18.8751 42.0636 17.3074C43.4517 16.5429 44.6764 15.7918 46.2695 14.9852C47.851 14.1837 49.4556 13.372 51.0716 12.5536C52.6025 11.7285 54.5432 10.9488 56.3457 10.1573C58.2104 9.38778 59.9254 8.54242 61.9098 7.84695C65.9016 6.50148 69.7093 4.94387 73.7425 3.96887L73.3903 3.89476C75.8121 3.24813 78.1878 2.65368 80.5106 2.1064C82.8219 1.71235 85.0825 1.38062 87.2971 1.06909C88.4044 0.920905 89.5002 0.77607 90.5799 0.631251L92.1937 0.430881L93.7292 0.351741C95.7665 0.269228 97.7578 0.186682 99.71 0.107536C101.664 0.0671217 103.577 -0.0473778 105.458 0.0216639C107.337 0.124384 109.188 0.22546 111.015 0.324813C112.836 0.449425 114.632 0.572354 116.416 0.695282C118.209 0.853573 120.081 1.20043 121.886 1.45976C123.698 1.75445 125.502 2.04747 127.31 2.34048C129.105 2.58802 130.917 3.16731 132.719 3.58324C134.517 4.05138 136.325 4.52118 138.15 4.99605C139.962 5.48608 141.672 6.17314 143.461 6.77599C145.217 7.4142 147.075 8.02376 148.802 8.73101C150.475 9.47026 152.177 10.223 153.917 10.9926C154.778 11.3799 155.65 11.7723 156.532 12.1697C157.324 12.5789 158.125 12.9931 158.936 13.4107C160.547 14.246 162.195 15.1014 163.887 15.9787C163.109 15.3877 162.158 14.773 161.293 14.1736C163.929 15.3944 166.374 16.915 169.348 18.7185C170.794 19.611 172.027 20.4546 173.473 21.3993C174.778 22.2666 176.141 23.1725 177.543 24.1054C182.902 27.6956 187.652 30.4758 191.844 31.7674C190.624 31.4441 189.362 30.9844 189.031 31.0989C188.867 31.1376 188.941 31.2757 189.374 31.5602C189.806 31.8112 190.596 32.3837 191.853 32.7441C194.293 33.5591 196.616 33.9094 198.794 34.3994C201.216 34.5829 203.251 35.0948 205.787 35.0359C206.985 35.0898 208.156 35.1437 209.312 35.1959C210.465 35.1201 211.598 35.046 212.726 34.9719L214.406 34.8709C214.973 34.8456 215.534 34.817 215.99 34.684C216.953 34.4836 217.915 34.2832 218.889 34.0811C220.268 34.1552 221.343 33.8571 222.588 33.7578C223.191 33.6803 223.827 33.6585 224.437 33.5608L226.223 33.1465C226.753 32.9714 227.307 32.7895 227.885 32.5992C228.468 32.3736 229.073 32.0452 229.708 31.769C230.353 31.4845 231.021 31.1915 231.713 30.8867C232.45 30.4808 233.21 30.0615 233.993 29.6288C235.507 28.8895 237.443 27.5862 239.363 26.4394C241.589 24.9845 243.928 23.4588 246.369 21.8641C247.038 21.4263 247.713 20.9851 248.397 20.5372C249.06 20.0977 249.769 19.6396 250.597 19.1361C252.19 18.1594 253.816 17.1625 255.469 16.1488C257.361 15.1199 259.286 14.0725 261.245 13.0082C262.184 12.4744 263.293 11.9609 264.44 11.4506C265.572 10.9437 266.714 10.4318 267.865 9.91653C277.219 5.8717 289.054 2.74293 300.935 1.67195C303.872 1.40925 306.75 1.35537 309.713 1.22234C311.186 1.17519 312.668 1.12971 314.156 1.08256C315.643 1.13981 317.139 1.1954 318.64 1.25266C320.141 1.3217 321.649 1.39073 323.166 1.46145C324.69 1.55744 326.168 1.55914 327.777 1.81173C330.942 2.21419 334.128 2.65706 337.321 3.13866C340.524 3.79372 343.746 4.59694 346.963 5.39345C350.139 6.26068 353.171 7.42092 356.27 8.49359C359.272 9.63699 361.988 10.9741 364.845 12.2623C367.467 13.596 369.928 14.9869 372.428 16.3778C381.758 21.987 388.464 27.113 394.256 30.2047C400.051 33.3486 404.613 34.8642 410.903 35.6421C417.181 36.3528 424.932 36.2517 430.452 35.1791C436.097 34.0997 440.816 32.1109 447.075 28.3557C453.27 24.6898 460.595 19.19 470.515 14.0069C475.448 11.4456 481.015 9.04088 486.922 7.18855C489.777 6.13103 492.875 5.52988 495.859 4.80241C497.36 4.47068 498.858 4.08842 500.348 3.82909C501.837 3.62028 503.32 3.41312 504.793 3.20768C506.271 3.01571 507.742 2.82713 509.202 2.63684C509.929 2.55265 510.67 2.44321 511.382 2.38596L513.481 2.28493C516.276 2.17547 519.036 2.06597 521.762 1.95988C524.485 1.84369 527.176 2.09631 529.828 2.17377C531.152 2.23944 532.469 2.30511 533.774 2.3691C535.061 2.40278 536.396 2.55602 537.733 2.7463C540.395 3.0932 543.012 3.45859 545.577 3.83916C548.139 4.23489 550.667 4.94386 553.13 5.5063C554.359 5.81278 555.577 6.11585 556.783 6.41559C557.955 6.7709 559.088 7.17509 560.22 7.55398C562.453 8.3387 564.735 9.0729 566.763 9.91319C570.708 11.6544 574.569 13.3669 577.562 15.1216C580.872 16.8679 583.345 18.4845 585.835 20.0236C590.009 22.7667 593.685 25.1831 596.793 27.2258L595.111 25.946C595.658 26.3114 596.213 26.6785 596.77 27.0506C597.277 27.3655 597.785 27.6821 598.301 28.0021C599.314 28.615 600.398 29.3543 601.388 29.9016C602.357 30.4371 603.343 30.981 604.339 31.5316C605.334 32.0957 606.264 32.4039 607.229 32.8838C611.128 34.5122 614.754 35.7886 619.681 36.2736L621.46 36.5498C622.075 36.6273 622.791 36.6037 623.454 36.6407C624.805 36.6895 626.168 36.7569 627.545 36.8428C628.923 36.8714 630.309 36.7232 631.714 36.6996C633.118 36.6559 634.577 36.666 635.784 36.41C641.17 35.9385 645.351 34.6587 650.294 32.4123C655.222 30.1592 660.77 26.4091 668.222 21.5408C669.079 20.9666 670.103 20.3351 671.146 19.6969L674.24 17.7991C675.216 17.1726 676.457 16.5193 677.628 15.8777L681.192 13.9546C683.628 12.6849 686.487 11.496 689.162 10.2988C691.954 9.14863 695.058 8.17868 698.039 7.16326C701.082 6.21689 704.321 5.56355 707.493 4.80914C709.091 4.40163 710.686 4.19111 712.291 3.97051L717.111 3.32223C720.38 2.80863 723.456 2.75471 726.594 2.61326C729.727 2.4937 732.862 2.30846 736.002 2.51895C739.154 2.66714 742.264 2.74124 745.455 3.02078C748.708 3.42997 751.96 3.87623 755.197 4.35784C758.438 4.97416 761.68 5.81107 764.891 6.59242C768.068 7.45124 771.075 8.6081 774.134 9.66225C777.088 10.7972 779.765 12.109 782.555 13.3652C785.108 14.6737 787.521 16.0276 789.945 17.3747C792.063 18.6899 794.316 20.0589 796.303 21.3404L801.856 25.0097C808.812 29.6827 814.119 32.7963 819.273 34.5796C824.404 36.3628 829.897 37.2806 836.631 37.3918C838.235 37.4591 839.833 37.2705 841.426 37.2587L843.806 37.1913L845.938 36.8865C848.889 36.634 851.373 35.9671 853.917 35.3138C858.848 33.8858 863.586 31.4744 869.316 27.832C875.013 24.2486 881.607 19.5605 889.869 15.2866C898.087 11.0178 907.901 7.4108 917.646 5.59551C920.056 5.04486 922.439 4.86636 924.798 4.52116C925.979 4.37465 927.151 4.22984 928.316 4.08671L930.056 3.88294L931.732 3.81054C933.958 3.72971 936.154 3.64887 938.318 3.56972C939.4 3.53941 940.473 3.50914 941.539 3.48051C942.605 3.46872 943.661 3.55461 944.709 3.58997C954.806 3.20098 968.441 4.83605 980.624 9.08632C982.118 9.6235 983.747 10.09 985.11 10.713C986.503 11.3243 987.896 11.9356 989.279 12.5435C992.164 13.7542 994.457 15.0812 996.872 16.3644C1001.56 18.9374 1005.41 21.4364 1008.68 23.5009C1006.76 22.3592 1005.46 21.6368 1004.65 21.2495C1003.76 20.8319 1003.45 20.7763 1003.61 20.9952C1004.02 21.465 1005.87 22.8879 1008.76 24.7605C1009.91 25.5132 1010.99 26.2188 1012.01 26.8839C1012.99 27.5205 1013.98 28.1958 1014.75 28.6471C1016.33 29.5968 1017.76 30.56 1018.87 31.1561C1021.09 32.3618 1022.6 33.2695 1023.58 33.6534C1025.56 34.6031 1025.75 34.8136 1025.95 35.0224C1026.15 35.2312 1026.38 35.3744 1028.39 36.1995C1028.9 36.3848 1029.48 36.708 1030.28 36.9219C1031.09 37.1307 1032.03 37.3749 1033.15 37.6662C1034.22 38.0485 1035.68 38.1916 1037.33 38.4358C1038.15 38.5671 1039.03 38.7069 1039.97 38.8551C1041 38.9006 1042.11 38.9494 1043.28 38.9999C1043.95 39.042 1044.66 39.0875 1045.39 39.1346C1046.13 39.202 1046.89 39.2407 1047.68 39.175C1049.27 39.1127 1050.96 39.0605 1052.77 39.0268C1054.52 38.9123 1056.18 38.584 1058.05 38.4105C1059.01 38.3667 1059.8 38.0502 1060.71 37.87C1061.59 37.6629 1062.5 37.4625 1063.44 37.2722C1064.33 36.9691 1065.23 36.6575 1066.16 36.3426C1066.62 36.1928 1067.09 36.0412 1067.57 35.888C1068.05 35.723 1068.51 35.467 1068.99 35.2615C1069.96 34.8338 1070.95 34.3977 1071.94 33.9548C1072.98 33.3941 1074.03 32.8232 1075.09 32.2456C1079.47 29.7803 1084.41 26.3939 1090.72 22.3171C1096.97 18.2773 1105.28 13.5656 1115.41 10.2281C1116.67 9.80538 1117.92 9.36417 1119.2 8.97013C1120.53 8.64513 1121.86 8.31846 1123.2 7.99177C1125.88 7.38723 1128.58 6.62275 1131.32 6.32638C1134.05 5.93739 1136.81 5.56523 1139.59 5.2217C1142.28 5.09541 1145 4.97078 1147.72 4.8428C1149.09 4.80407 1150.45 4.70137 1151.82 4.72831L1155.94 4.87647C1158.7 5.02634 1161.41 5.01793 1164.25 5.34966C1167.1 5.70498 1169.95 6.08893 1172.81 6.49812C1175.66 6.97805 1178.51 7.73921 1181.35 8.39595L1183.47 8.91797L1185.52 9.5865L1189.59 10.969C1192.38 11.8497 1194.76 13.01 1197.25 14.1079C1199.83 15.1974 1201.95 16.4031 1204.17 17.5953C1206.47 18.796 1208.35 19.9882 1210.31 21.1821C1217.99 25.9679 1223.91 30.2148 1229.31 32.9933C1234.69 35.8173 1239.48 37.3378 1244.96 38.2438C1246.37 38.4055 1247.76 38.5907 1249.14 38.7995C1250.66 38.8484 1252.17 38.8972 1253.67 38.946L1255.91 39.0504L1258.14 38.9191C1259.61 38.8399 1261.08 38.7759 1262.54 38.7305C1267.98 38.0586 1272.58 37.0011 1276.82 35.3239C1281.04 33.5288 1285.31 31.0012 1289.81 28.0509C1292.25 26.4175 1294.61 24.8379 1296.89 23.3157C1297.49 22.9132 1298.08 22.5141 1298.67 22.1201C1299.33 21.7025 1299.99 21.2899 1300.63 20.8824C1301.93 20.0656 1303.21 19.2641 1304.46 18.4811C1305.87 17.693 1307.25 16.9234 1308.59 16.1724C1309.96 15.4281 1311.2 14.6855 1312.71 14.0254C1314.16 13.3602 1315.58 12.7119 1316.95 12.0837C1317.64 11.7739 1318.32 11.4691 1318.98 11.1694C1319.71 10.905 1320.43 10.6457 1321.13 10.3897C1323.98 9.41304 1326.57 8.36564 1329.15 7.71396C1331.73 7.05217 1334.12 6.4678 1336.29 5.95252C1337.47 5.68982 1338.66 5.55847 1339.86 5.4288C1341.06 5.29409 1342.27 5.15938 1343.48 5.02298C1345.89 4.79901 1348.41 4.38816 1350.78 4.40332C1355.58 4.30228 1360.47 3.99413 1365.42 4.38985C1367.9 4.53299 1370.37 4.61209 1372.9 4.84111C1375.47 5.19642 1378.05 5.55343 1380.64 5.91043C1383.22 6.20007 1385.8 6.90393 1388.38 7.49668L1392.23 8.43974C1393.53 8.73948 1394.71 9.22441 1395.95 9.61677L1399.61 10.8814C1400.83 11.3041 1402.05 11.7284 1403.13 12.2437C1405.35 13.2305 1407.6 14.2224 1409.73 15.2445C1411.68 16.3121 1413.63 17.3747 1415.56 18.4305C1417.4 19.4931 1419.01 20.5405 1420.71 21.5913C1427.15 25.754 1432.11 29.3189 1436.36 32.02C1435.87 31.6697 1435.32 31.1511 1434.8 30.72C1437.21 32.2793 1440.74 34.2832 1445.14 35.989C1449.49 37.7386 1454.96 38.8989 1462.61 39.0976C1463.54 39.1262 1464.49 39.2121 1465.45 39.2121C1466.41 39.1616 1467.38 39.1111 1468.37 39.0588C1469.35 39.0218 1470.34 38.9831 1471.35 38.9444C1472.37 38.9292 1473.21 38.6884 1474.16 38.5857C1475.1 38.4644 1476.04 38.3415 1476.99 38.2169C1477.93 38.0855 1478.75 37.7807 1479.65 37.5904C1480.53 37.3547 1481.46 37.22 1482.33 36.9371C1483.18 36.6171 1484.04 36.3107 1484.92 36.0143L1486.25 35.568L1487.56 34.95C1488.45 34.5492 1489.35 34.1451 1490.24 33.741C1491.17 33.2257 1492.11 32.707 1493.04 32.1867C1493.52 31.9189 1493.98 31.6966 1494.48 31.3935L1495.98 30.4488C1499.91 28.0778 1504.48 24.8178 1509.76 21.4751L1513.9 18.9054C1515.37 18.0449 1516.99 17.1811 1518.54 16.329L1520.89 15.0542L1523.51 13.8469C1525.27 13.0521 1527 12.2505 1528.8 11.4977C1530.71 10.8258 1532.63 10.1556 1534.54 9.48711L1537.42 8.52222L1540.42 7.77455C1542.43 7.29967 1544.43 6.8282 1546.42 6.3567C1548.42 5.93403 1550.41 5.73023 1552.4 5.4288C1554.39 5.16274 1556.39 4.87141 1558.34 4.66597C1560.26 4.57167 1562.17 4.47737 1564.06 4.38307C1565.95 4.30729 1567.83 4.23156 1569.7 4.15747C1571.57 4.19283 1573.42 4.27364 1575.26 4.34268C1577.1 4.42351 1578.92 4.50436 1580.73 4.58519C1582.53 4.6677 1584.42 4.99944 1586.23 5.20993C1588.05 5.46084 1589.85 5.71005 1591.63 5.95591C1593.41 6.2085 1595.17 6.70356 1596.9 7.07739C1598.62 7.49332 1600.33 7.9042 1602.01 8.31003C1603.65 8.77816 1605.21 9.34905 1606.77 9.86771C1608.32 10.4099 1609.84 10.9437 1611.34 11.4708C1612.72 12.0804 1614.08 12.6799 1615.41 13.2693C1616.72 13.8687 1618.07 14.4514 1619.27 15.0509C1620.41 15.6672 1621.53 16.27 1622.63 16.8628C1623.71 17.4606 1624.77 18.0466 1625.81 18.6191C1626.73 19.1883 1627.64 19.744 1628.52 20.2879C1629.4 20.8335 1630.26 21.3656 1631.09 21.8843C1631.93 22.4046 1632.58 22.8593 1633.31 23.3308C1634.69 24.2469 1635.99 25.1091 1637.2 25.914C1639.39 27.3639 1641.37 28.738 1642.7 29.5513L1641.09 28.6689L1639.36 27.6484C1640 28.1014 1640.63 28.5376 1641.23 28.9586C1641.79 29.3274 1642.33 29.681 1642.85 30.0245C1643.88 30.6863 1644.88 31.3935 1645.75 31.8785C1646.61 32.3601 1647.41 32.8064 1648.15 33.2223C1648.9 33.6483 1649.59 34.0356 1650.22 34.268C1651.5 34.8002 1652.59 35.2599 1653.58 35.6758C1654.59 35.9402 1655.5 36.1776 1656.38 36.4066C1659.98 37.1964 1662.72 37.6494 1671.02 37.9138C1669.84 38.4728 1673.86 39.4883 1679.31 39.4613C1679.99 39.4815 1680.69 39.5017 1681.4 39.5236C1682.05 39.4664 1682.71 39.4091 1683.38 39.3502C1684.7 39.2171 1686.1 39.1784 1687.35 38.9982C1689.73 38.4577 1692.06 38.1883 1693.52 37.5602L1693.13 37.3665C1695.43 36.6929 1698.4 35.696 1702.06 33.8976C1702.98 33.4412 1703.93 32.968 1704.91 32.4847C1705.94 31.9021 1706.99 31.3026 1708.07 30.6913C1709.12 30.1205 1710.32 29.3762 1711.52 28.6471C1712.75 27.8977 1714 27.1365 1715.26 26.3653C1720.36 23.1843 1726.83 19.3012 1734.12 16.0242C1736.01 15.2193 1737.86 14.4042 1739.75 13.6532C1741.76 12.988 1743.76 12.3279 1745.73 11.6779C1747.67 10.9824 1749.72 10.5413 1751.72 10.0832C1753.72 9.63026 1755.69 9.17056 1757.61 8.77989C1757.12 8.5997 1756.64 8.47004 1756.14 8.31512C1759.42 7.76952 1763.07 7.46133 1766.95 7.00498C1770.78 6.75744 1774.78 6.71706 1778.96 6.58908C1781.04 6.65139 1783.16 6.77091 1785.3 6.87363C1787.46 7.0235 1789.58 7.00331 1791.81 7.3182C1796.26 7.96315 1800.76 8.37235 1805.14 9.56795C1807.31 10.1237 1809.55 10.5379 1811.58 11.2418C1813.62 11.9423 1815.64 12.6327 1817.61 13.3113C1819.62 13.9782 1821.27 14.8556 1823.03 15.6032C1824.76 16.3795 1826.49 17.1306 1827.88 17.9338C1829.33 18.7236 1830.74 19.4881 1832.08 20.2172C1833.42 20.9514 1834.47 21.6553 1835.58 22.3221C1836.66 22.989 1837.67 23.6188 1838.61 24.2014C1839.46 24.7655 1840.25 25.2859 1840.96 25.759C1847.63 30.0245 1853.97 34.1956 1860.46 36.762C1866.92 39.3637 1873.92 40.6687 1882.91 40.5862C1885.06 40.6283 1887.22 40.3538 1889.4 40.305C1890.52 40.3066 1891.52 40.1298 1892.51 39.9665L1895.52 39.5422C1896.57 39.4714 1897.43 39.1262 1898.38 38.9208C1899.31 38.6884 1900.25 38.4711 1901.2 38.2674L1903.88 37.3177C1904.78 37.0061 1905.7 36.7619 1906.58 36.2989L1909.28 35.1016C1910.18 34.7311 1911.11 34.1299 1912.04 33.6652C1913.86 32.7659 1915.85 31.5064 1917.8 30.3495C1919.91 29.0242 1922.01 27.7057 1924.09 26.3973C1926.38 24.9575 1928.53 23.5716 1931.14 22.0796L1934.07 19.9276L1937.41 17.767C1938.56 17.0531 1939.6 16.3172 1940.85 15.6268L1944.68 13.5791C1947.17 12.1629 1950.08 11.0044 1952.97 9.82562C1955.81 8.55929 1958.93 7.71395 1962.03 6.78442C1963.93 6.4291 1965.81 6.00812 1967.7 5.87004C1967.7 5.87004 1972.13 6.8703 1976.83 8.81021C1981.5 10.9943 1986.26 14.2594 1988.45 17.7082C1989.53 19.4864 1990.13 21.3067 1989.97 23.0799C1989.88 24.8666 1988.73 26.5404 1987.12 28.2328C1983.84 31.6596 1977.23 33.9969 1969.56 38.2118L1970.53 38.6985L1968.83 39.2474L1967.98 39.5085L1967.13 39.8874C1965.99 40.4127 1964.85 40.8439 1963.68 41.3996C1961.62 42.6642 1959.81 43.5819 1958.07 44.7051C1957.22 45.2086 1956.44 45.6666 1955.74 46.0775C1954.98 46.5473 1954.3 46.965 1953.7 47.3287C1951.33 48.7853 1950.27 49.437 1950.96 49.4859C1955.64 46.347 1959.82 43.6105 1963.59 41.642C1959.44 43.9962 1958.76 44.7152 1959.82 44.2774C1960.75 43.9019 1963.26 42.8747 1965.05 42.1455C1961.68 43.9962 1958.26 46.1381 1955.08 48.5664C1953.97 49.1069 1954.26 48.8105 1955.01 48.238C1955.74 47.6991 1956.86 46.8673 1957.57 46.3436C1954.93 47.8153 1951.5 49.8058 1947.48 52.2037C1945.37 53.4532 1943.2 54.7296 1941.06 55.996C1938.67 57.3482 1936.31 58.6919 1934.02 59.9902C1925.92 63.8128 1925.72 64.1243 1925.25 64.6363C1925.01 64.8888 1924.68 65.1802 1923.05 65.879C1922.24 66.2276 1921.09 66.6789 1919.47 67.2649C1917.88 67.9065 1915.68 68.4673 1912.81 69.156C1910.93 69.6123 1909.04 70.0636 1907.14 70.4829L1901.46 71.3182C1899.56 71.5775 1897.65 71.8536 1895.76 72.0641L1890.25 72.3572L1884.73 72.5979C1882.89 72.6687 1881.05 72.5289 1879.21 72.4919C1875.51 72.3167 1871.93 72.3454 1868.07 71.7476C1864.26 71.2289 1860.48 70.8837 1856.69 69.902L1851.04 68.5716C1849.15 68.1237 1847.41 67.4434 1845.6 66.8692C1843.83 66.2562 1841.99 65.6736 1840.3 64.9983L1835.41 62.858L1832.99 61.7668C1832.22 61.3947 1831.53 61.009 1830.8 60.6285L1826.51 58.3215C1825.09 57.5469 1823.95 56.8026 1822.66 56.0398C1821.45 55.2971 1820.05 54.4787 1819.01 53.7934L1812.65 49.693L1809.73 47.8204L1807.08 46.2308L1805.76 45.4326C1805.34 45.1901 1804.95 45.0049 1804.54 44.7876L1802.14 43.5095C1801.35 43.0784 1800.62 42.8545 1799.87 42.5025C1799.13 42.2095 1798.4 41.7784 1797.66 41.5679C1796.93 41.3473 1796.2 41.1166 1795.49 40.8691L1794.42 40.4885C1794.06 40.3892 1793.67 40.337 1793.29 40.2528C1791.76 39.9867 1790.41 39.4546 1788.68 39.3788C1787 39.234 1785.52 38.8349 1783.57 38.8989L1780.81 38.808C1779.88 38.7591 1778.96 38.6985 1778.05 38.8046C1776.23 38.9511 1774.31 38.9393 1772.59 39.1111C1770.99 39.4175 1769.29 39.5438 1767.75 39.8503C1767.03 40.0541 1766.3 40.241 1765.56 40.4128C1764.83 40.5896 1764.06 40.7007 1763.39 41.0156C1757.77 42.8275 1752.11 46.1466 1743.7 51.8551C1741.45 53.3252 1739.47 54.701 1736.82 56.3159L1733.01 58.6549L1728.67 61.0377L1726.49 62.2165C1725.74 62.6054 1724.87 62.9776 1724.06 63.3548L1719.1 65.5793C1717.46 66.3252 1715.53 66.9062 1713.74 67.5562C1711.9 68.1709 1710.1 68.8411 1708.2 69.3681L1702.42 70.7726C1700.48 71.1986 1698.53 71.7392 1696.59 71.9564L1690.75 72.763C1688.81 73.0055 1686.81 73.317 1684.96 73.3507C1681.19 73.514 1677.41 73.7447 1673.63 73.743C1669.85 73.6151 1666.06 73.4466 1662.28 73.2378C1660.83 73.2328 1660.95 73.3102 1661.89 73.4837C1662.82 73.6184 1664.5 73.7161 1666.26 73.8744C1661.76 73.775 1656.93 72.9028 1652.36 72.2629L1650.63 71.9985L1648.91 71.6061L1645.49 70.7962C1643.24 70.2101 1640.92 69.7639 1638.81 69.0145C1634.54 67.5731 1630.25 66.1249 1626.61 64.3416C1622.67 62.6509 1619.56 60.8272 1616.28 59.0254C1614.72 58.1278 1613.4 57.2623 1611.96 56.3799L1609.85 55.0597L1607.99 53.8321C1605.7 52.2997 1603.41 50.774 1601.12 49.2501C1600 48.4822 1599.08 47.9147 1598.12 47.3085C1597.18 46.736 1596.16 46.0152 1595.3 45.5555L1592.71 44.0821L1592.07 43.7049L1591.45 43.4304L1590.25 42.8629C1588.32 42.09 1587.08 42.0159 1586.18 41.9064C1585.28 41.8205 1584.72 41.7767 1584.13 41.7868C1584.44 41.7599 1583.55 41.5494 1581.82 41.0543C1581.37 40.9432 1580.92 40.7512 1580.33 40.6485C1579.72 40.5643 1579.05 40.4734 1578.34 40.374C1577.62 40.2662 1576.86 40.14 1576.05 39.9918C1575.17 39.9076 1574.15 39.911 1573.13 39.847C1572.1 39.783 1571.02 39.7156 1569.91 39.6465C1568.78 39.6937 1567.62 39.7425 1566.42 39.7914C1563.88 39.7223 1561.8 40.214 1559.43 40.4161C1555.05 41.2699 1551.09 42.5211 1546.12 45.2036C1541.16 47.8272 1535.21 52.101 1527.72 56.7621C1520.26 61.3728 1511.11 66.1367 1501.87 68.863C1499.69 69.6696 1497.4 70.1444 1495.27 70.6766C1493.13 71.1902 1491.08 71.6651 1489.15 72.0877C1485.3 72.6687 1481.89 73.1284 1479.05 73.4888C1477.61 73.7094 1476.4 73.7245 1475.31 73.7919C1474.22 73.8474 1473.29 73.8963 1472.51 73.9367C1470.92 74.0327 1470 74.0798 1469.81 74.0899Z" fill="url(#paint0_linear_67_505)"/>
<defs>
<linearGradient id="paint0_linear_67_505" x1="0" y1="37.2487" x2="1990" y2="37.2487" gradientUnits="userSpaceOnUse">
<stop stop-color="#3A63F3" stop-opacity="0"/>
<stop offset="0.5" stop-color="#8EFF91"/>
<stop offset="1" stop-color="#3A63F3" stop-opacity="0"/>
</linearGradient>
</defs>
</svg>
