<svg width="40" height="40" viewBox="0 0 40 40" fill="none" xmlns="http://www.w3.org/2000/svg">
<path d="M5 20.0002C5 16.1174 5 14.176 5.63434 12.6445C6.48012 10.6026 8.1024 8.98036 10.1443 8.13458C11.6757 7.50024 13.6172 7.50024 17.5 7.50024H22.5C26.3828 7.50024 28.3243 7.50024 29.8557 8.13458C31.8976 8.98036 33.5199 10.6026 34.3657 12.6445C35 14.176 35 16.1174 35 20.0002V20.0002C35 23.8831 35 25.8245 34.3657 27.3559C33.5199 29.3978 31.8976 31.0201 29.8557 31.8659C28.3243 32.5002 26.3828 32.5002 22.5 32.5002H17.5C13.6172 32.5002 11.6757 32.5002 10.1443 31.8659C8.1024 31.0201 6.48012 29.3978 5.63434 27.3559C5 25.8245 5 23.8831 5 20.0002V20.0002Z" stroke="#3A63F3" stroke-width="2" stroke-linejoin="round"/>
<path d="M5 13.3335L10.7914 17.8377C14.7075 20.8834 16.6655 22.4062 18.9021 22.7036C19.6313 22.8006 20.37 22.8005 21.0992 22.7036C23.3358 22.4061 25.2937 20.8832 29.2096 17.8373L35 13.3335" stroke="#3A63F3" stroke-width="2" stroke-linejoin="round"/>
</svg>
