<svg width="24" height="24" viewBox="0 0 24 24" fill="none" xmlns="http://www.w3.org/2000/svg">
<path d="M10 7V10H7.9C7.52503 10 7.33754 10 7.20611 10.0955C7.16366 10.1263 7.12633 10.1637 7.09549 10.2061C7 10.3375 7 10.525 7 10.9V12.6C7 12.975 7 13.1625 7.09549 13.2939C7.12633 13.3363 7.16366 13.3737 7.20611 13.4045C7.33754 13.5 7.52503 13.5 7.9 13.5H10L10 20.1C10 20.475 10 20.6625 10.0955 20.7939C10.1263 20.8363 10.1637 20.8737 10.2061 20.9045C10.3375 21 10.525 21 10.9 21H13.1C13.475 21 13.6625 21 13.7939 20.9045C13.8363 20.8737 13.8737 20.8363 13.9045 20.7939C14 20.6625 14 20.475 14 20.1V13.4996L16.1 13.5C16.475 13.5 16.6625 13.5 16.7939 13.4045C16.8363 13.3737 16.8737 13.3363 16.9045 13.2939C17 13.1625 17 12.975 17 12.6V10.9C17 10.525 17 10.3375 16.9045 10.2061C16.8737 10.1637 16.8363 10.1263 16.7939 10.0955C16.6625 10 16.475 10 16.1 10H14V7.66667C14 7.02233 14.3838 6.5 14.8571 6.5H16.1C16.475 6.5 16.6625 6.5 16.7939 6.40451C16.8363 6.37367 16.8737 6.33634 16.9045 6.29389C17 6.16246 17 5.97497 17 5.6V3.9C17 3.52503 17 3.33754 16.9045 3.20611C16.8737 3.16366 16.8363 3.12633 16.7939 3.09549C16.6625 3 16.475 3 16.1 3H13.2308C11.4465 3 10 4.79086 10 7Z" fill="#340E85"/>
</svg>
