<svg width="40" height="40" viewBox="0 0 40 40" fill="none" xmlns="http://www.w3.org/2000/svg">
<path d="M31.6673 10C31.6673 12.7614 26.444 15 20.0007 15C13.5573 15 8.33398 12.7614 8.33398 10M31.6673 10C31.6673 7.23858 26.444 5 20.0007 5C13.5573 5 8.33398 7.23858 8.33398 10M31.6673 10V30C31.6673 32.7614 26.444 35 20.0007 35C13.5573 35 8.33398 32.7614 8.33398 30V10M31.6673 16.6667C31.6673 19.4281 26.444 21.6667 20.0007 21.6667C13.5573 21.6667 8.33398 19.4281 8.33398 16.6667M31.6673 23.3333C31.6673 26.0948 26.444 28.3333 20.0007 28.3333C13.5573 28.3333 8.33398 26.0948 8.33398 23.3333" stroke="white" stroke-width="2" stroke-linejoin="round"/>
</svg>
