<svg width="40" height="40" viewBox="0 0 40 40" fill="none" xmlns="http://www.w3.org/2000/svg">
<path d="M13.3333 30V25M20 21.6667V30M26.6667 30V18.3333M10.8333 19.1667L13.2743 16.3188C14.8591 14.4699 17.3062 13.6011 19.702 14.0367V14.0367C23.0201 14.64 26.423 13.577 28.8076 11.1924L29.1667 10.8333M17 35H23C27.9996 35 30.4995 35 32.2519 33.7268C32.8179 33.3156 33.3156 32.8179 33.7268 32.2519C35 30.4995 35 27.9996 35 23V17C35 12.0004 35 9.50054 33.7268 7.7481C33.3156 7.18213 32.8179 6.68442 32.2519 6.27322C30.4995 5 27.9996 5 23 5H17C12.0004 5 9.50054 5 7.7481 6.27322C7.18213 6.68442 6.68442 7.18213 6.27322 7.7481C5 9.50054 5 12.0004 5 17V23C5 27.9996 5 30.4995 6.27322 32.2519C6.68442 32.8179 7.18213 33.3156 7.7481 33.7268C9.50054 35 12.0004 35 17 35Z" stroke="white" stroke-width="2" stroke-linecap="round" stroke-linejoin="round"/>
</svg>
