<svg width="30" height="30" viewBox="0 0 30 30" fill="none" xmlns="http://www.w3.org/2000/svg">
<path d="M12.5052 22.1494V22.1494C12.0484 23.3792 12.9581 24.6875 14.2701 24.6875H22.5496C23.234 24.6875 23.5762 24.6875 23.8306 24.6452C25.5648 24.3569 26.72 22.6955 26.3864 20.9695C26.3375 20.7162 26.2183 20.3955 25.98 19.7539V19.7539C25.7817 19.2199 25.6825 18.9528 25.5672 18.7198C24.8064 17.1824 23.3106 16.1424 21.6045 15.9645C21.3459 15.9375 21.061 15.9375 20.4913 15.9375H18.2594C17.9931 15.9375 17.86 15.9375 17.7277 15.9445C17.3946 15.9622 17.0642 16.0131 16.7413 16.0966C16.613 16.1297 16.4861 16.1698 16.2321 16.25V16.25M10.4126 10.3125C9.03189 10.3125 7.9126 9.19321 7.9126 7.8125C7.9126 6.43179 9.03189 5.3125 10.4126 5.3125C11.7933 5.3125 12.9126 6.43179 12.9126 7.8125C12.9126 9.19321 11.7933 10.3125 10.4126 10.3125ZM19.7876 12.8125C18.4069 12.8125 17.2876 11.6932 17.2876 10.3125C17.2876 8.93179 18.4069 7.8125 19.7876 7.8125C21.1683 7.8125 22.2876 8.93179 22.2876 10.3125C22.2876 11.6932 21.1683 12.8125 19.7876 12.8125ZM7.45041 22.1875H13.1746C13.859 22.1875 14.2012 22.1875 14.4556 22.1452C16.1898 21.8569 17.345 20.1955 17.0114 18.4695C16.9625 18.2162 16.8433 17.8955 16.605 17.2539V17.2539C16.4067 16.7199 16.3075 16.4528 16.1922 16.2198C15.4314 14.6824 13.9356 13.6424 12.2295 13.4645C11.9709 13.4375 11.686 13.4375 11.1163 13.4375H9.50867C8.93897 13.4375 8.65412 13.4375 8.39552 13.4645C6.68944 13.6424 5.19365 14.6824 4.43284 16.2198C4.31752 16.4528 4.21834 16.7199 4.01997 17.2539V17.2539C3.78168 17.8955 3.66254 18.2162 3.61359 18.4695C3.28001 20.1955 4.43523 21.8569 6.16937 22.1452C6.42385 22.1875 6.76603 22.1875 7.45041 22.1875Z" stroke="white" stroke-width="1.875" stroke-linejoin="round"/>
</svg>
