<svg width="30" height="30" viewBox="0 0 30 30" fill="none" xmlns="http://www.w3.org/2000/svg">
<path d="M26.25 12.5V12.375V12.375C26.25 8.98281 26.25 7.28671 25.4611 6.05431C25.0714 5.44559 24.5544 4.92858 23.9457 4.53891C22.7133 3.75 21.0172 3.75 17.625 3.75H12.75C9.00027 3.75 7.1254 3.75 5.81107 4.70492C5.3866 5.01331 5.01331 5.3866 4.70492 5.81107C3.75 7.1254 3.75 9.00027 3.75 12.75V17.25C3.75 20.9997 3.75 22.8746 4.70492 24.1889C5.01331 24.6134 5.3866 24.9867 5.81107 25.2951C7.1254 26.25 9.00027 26.25 12.75 26.25H17.5C21.0112 26.25 22.7667 26.25 24.0279 25.4073C24.5738 25.0426 25.0426 24.5738 25.4073 24.0279C26.25 22.7667 26.25 21.0112 26.25 17.5V17.5" stroke="#3A63F3" stroke-width="1.5" stroke-linecap="round" stroke-linejoin="round"/>
<path d="M20.6379 14.7705C21.571 14.0485 22.0376 13.6874 22.1242 13.2179C22.1519 13.0679 22.1519 12.9142 22.1242 12.7643C22.0376 12.2947 21.571 11.9337 20.6379 11.2116L19.1875 10.0893L17.251 8.59079C16.5561 8.05312 16.2087 7.78428 15.9181 7.85331C15.8273 7.87487 15.7426 7.91646 15.67 7.97504C15.4375 8.16267 15.4375 8.60195 15.4375 9.48052V10.6696C11.2667 10.9416 7.93762 13.615 7.9375 18.2143C7.93747 19.32 8.36248 20.5555 8.89168 21.6653V21.6653C9.23124 22.3774 10.0804 22.0844 10.0804 21.2955V21.1161C10.0811 17.786 12.4341 15.5691 15.4375 15.3334V16.5016C15.4375 17.3802 15.4375 17.8195 15.67 18.0071C15.7426 18.0657 15.8273 18.1073 15.9181 18.1288C16.2087 18.1979 16.5561 17.929 17.251 17.3914L20.6379 14.7705Z" stroke="#3A63F3" stroke-width="1.5" stroke-linecap="round" stroke-linejoin="round"/>
</svg>
