<svg width="50" height="50" viewBox="0 0 50 50" fill="none" xmlns="http://www.w3.org/2000/svg">
<path d="M25 44.7917C34.4719 44.7917 40.3847 34.2729 42.7386 23.1727C43.2868 20.5876 43.5609 19.295 43.1036 17.7669C42.9698 17.3197 42.7148 16.7421 42.4745 16.3419C41.6535 14.9743 40.3261 14.1959 37.6712 12.639L30.6909 8.54562C28.2305 7.10282 27.0004 6.38142 25.6617 6.23889C25.2218 6.19205 24.7782 6.19205 24.3383 6.23889C22.9996 6.38142 21.7695 7.10282 19.3091 8.54562L12.3288 12.639C9.67393 14.1959 8.34647 14.9743 7.52547 16.3419C7.2852 16.7421 7.03024 17.3197 6.8964 17.7669C6.43907 19.295 6.71318 20.5876 7.26139 23.1727C9.61527 34.2729 15.5281 44.7917 25 44.7917Z" stroke="#3A63F3" stroke-width="3.125" stroke-linecap="round" stroke-linejoin="round"/>
<path d="M29.0496 21.875V20.7176C29.0496 18.4803 27.236 16.6666 24.9987 16.6666V16.6666C22.7614 16.6666 20.9478 18.4803 20.9478 20.7176V21.875M23.4362 33.3333H26.5612C28.0149 33.3333 28.7418 33.3333 29.3332 33.1539C30.6649 32.7499 31.707 31.7078 32.1109 30.3761C32.2904 29.7847 32.2904 29.0578 32.2904 27.6041V27.6041C32.2904 26.1504 32.2904 25.4236 32.1109 24.8321C31.707 23.5004 30.6649 22.4583 29.3332 22.0544C28.7418 21.875 28.0149 21.875 26.5612 21.875H23.4362C21.9825 21.875 21.2556 21.875 20.6642 22.0544C19.3325 22.4583 18.2904 23.5004 17.8864 24.8321C17.707 25.4236 17.707 26.1504 17.707 27.6041V27.6041C17.707 29.0578 17.707 29.7847 17.8864 30.3761C18.2904 31.7078 19.3325 32.7499 20.6642 33.1539C21.2556 33.3333 21.9825 33.3333 23.4362 33.3333Z" stroke="#3A63F3" stroke-width="3.125" stroke-linecap="round" stroke-linejoin="round"/>
</svg>
