<svg width="124" height="16" viewBox="0 0 124 16" fill="none" xmlns="http://www.w3.org/2000/svg">
<path d="M8.02384 0.267202C8.1396 -0.0890677 8.64363 -0.0890672 8.75939 0.267203L10.4753 5.54817C10.5271 5.7075 10.6755 5.81537 10.8431 5.81537H16.3958C16.7704 5.81537 16.9262 6.29473 16.6231 6.51492L12.1308 9.77874C11.9953 9.87721 11.9386 10.0518 11.9904 10.2111L13.7062 15.4921C13.822 15.8483 13.4142 16.1446 13.1112 15.9244L8.61891 12.6606C8.48338 12.5621 8.29985 12.5621 8.16432 12.6606L3.67206 15.9244C3.369 16.1446 2.96123 15.8483 3.07699 15.4921L4.79288 10.2111C4.84465 10.0518 4.78794 9.87721 4.65241 9.77874L0.160144 6.51492C-0.142917 6.29473 0.0128364 5.81537 0.387441 5.81537H5.94018C6.10771 5.81537 6.25618 5.7075 6.30795 5.54817L8.02384 0.267202Z" fill="#FDEE40"/>
<path d="M34.807 0.267202C34.9228 -0.0890677 35.4268 -0.0890672 35.5426 0.267203L37.2585 5.54817C37.3103 5.7075 37.4587 5.81538 37.6263 5.81538H43.179C43.5536 5.81538 43.7094 6.29473 43.4063 6.51492L38.914 9.77874C38.7785 9.87721 38.7218 10.0518 38.7736 10.2111L40.4894 15.4921C40.6052 15.8483 40.1974 16.1446 39.8944 15.9244L35.4021 12.6606C35.2666 12.5621 35.0831 12.5621 34.9475 12.6606L30.4553 15.9244C30.1522 16.1446 29.7444 15.8483 29.8602 15.4921L31.5761 10.2111C31.6279 10.0518 31.5711 9.87721 31.4356 9.77874L26.9433 6.51492C26.6403 6.29473 26.796 5.81538 27.1706 5.81538H32.7234C32.8909 5.81538 33.0394 5.7075 33.0912 5.54817L34.807 0.267202Z" fill="#FDEE40"/>
<path d="M61.5903 0.267202C61.706 -0.0890677 62.21 -0.0890672 62.3258 0.267203L64.0417 5.54817C64.0935 5.7075 64.2419 5.81537 64.4095 5.81537H69.9622C70.3368 5.81537 70.4926 6.29473 70.1895 6.51492L65.6972 9.77874C65.5617 9.87721 65.505 10.0518 65.5568 10.2111L67.2727 15.4921C67.3884 15.8483 66.9806 16.1446 66.6776 15.9244L62.1853 12.6606C62.0498 12.5621 61.8663 12.5621 61.7307 12.6606L57.2385 15.9244C56.9354 16.1446 56.5276 15.8483 56.6434 15.4921L58.3593 10.2111C58.4111 10.0518 58.3543 9.87721 58.2188 9.77874L53.7266 6.51492C53.4235 6.29473 53.5792 5.81537 53.9538 5.81537H59.5066C59.6741 5.81537 59.8226 5.7075 59.8744 5.54817L61.5903 0.267202Z" fill="#FDEE40"/>
<path d="M88.3735 0.267202C88.4892 -0.0890677 88.9932 -0.0890672 89.109 0.267203L90.8249 5.54817C90.8767 5.7075 91.0251 5.81537 91.1927 5.81537H96.7454C97.12 5.81537 97.2758 6.29473 96.9727 6.51492L92.4804 9.77874C92.3449 9.87721 92.2882 10.0518 92.34 10.2111L94.0559 15.4921C94.1716 15.8483 93.7638 16.1446 93.4608 15.9244L88.9685 12.6606C88.833 12.5621 88.6495 12.5621 88.5139 12.6606L84.0217 15.9244C83.7186 16.1446 83.3108 15.8483 83.4266 15.4921L85.1425 10.2111C85.1943 10.0518 85.1375 9.87721 85.002 9.77874L80.5098 6.51492C80.2067 6.29473 80.3624 5.81537 80.7371 5.81537H86.2898C86.4573 5.81537 86.6058 5.7075 86.6576 5.54817L88.3735 0.267202Z" fill="#FDEE40"/>
<path d="M115.157 0.267202C115.272 -0.0890677 115.776 -0.0890672 115.892 0.267203L117.608 5.54817C117.66 5.7075 117.808 5.81537 117.976 5.81537H123.529C123.903 5.81537 124.059 6.29473 123.756 6.51492L119.264 9.77874C119.128 9.87721 119.071 10.0518 119.123 10.2111L120.839 15.4921C120.955 15.8483 120.547 16.1446 120.244 15.9244L115.752 12.6606C115.616 12.5621 115.433 12.5621 115.297 12.6606L110.805 15.9244C110.502 16.1446 110.094 15.8483 110.21 15.4921L111.926 10.2111C111.977 10.0518 111.921 9.87721 111.785 9.77874L107.293 6.51492C106.99 6.29473 107.146 5.81537 107.52 5.81537H113.073C113.241 5.81537 113.389 5.7075 113.441 5.54817L115.157 0.267202Z" fill="#FDEE40"/>
</svg>
