<svg width="55" height="55" viewBox="0 0 55 55" fill="none" xmlns="http://www.w3.org/2000/svg">
<path d="M27.5026 27.5L12.8109 27.5C12.2485 27.5 11.9672 27.5 11.7701 27.6432C11.7064 27.6895 11.6504 27.7455 11.6042 27.8092C11.4609 28.0063 11.4609 28.2876 11.4609 28.85L11.4609 36.6667M27.5026 27.5V36.6667M27.5026 27.5L27.5026 18.3333M27.5026 27.5L42.1943 27.5C42.7567 27.5 43.038 27.5 43.2351 27.6432C43.2988 27.6895 43.3548 27.7455 43.401 27.8092C43.5443 28.0063 43.5443 28.2876 43.5443 28.85L43.5443 36.6667" stroke="white" stroke-width="2" stroke-linejoin="round"/>
<path d="M14.6917 45.8333C15.2541 45.8333 15.5354 45.8333 15.7325 45.6901C15.7962 45.6438 15.8522 45.5878 15.8984 45.5242C16.0417 45.327 16.0417 45.0458 16.0417 44.4833V38.0167C16.0417 37.4542 16.0417 37.173 15.8984 36.9758C15.8522 36.9121 15.7962 36.8562 15.7325 36.8099C15.5354 36.6667 15.2541 36.6667 14.6917 36.6667H8.225C7.66254 36.6667 7.38131 36.6667 7.18416 36.8099C7.12049 36.8562 7.0645 36.9121 7.01824 36.9758C6.875 37.173 6.875 37.4542 6.875 38.0167V44.4833C6.875 45.0458 6.875 45.327 7.01824 45.5242C7.0645 45.5878 7.12049 45.6438 7.18416 45.6901C7.38131 45.8333 7.66254 45.8333 8.225 45.8333H14.6917Z" stroke="white" stroke-width="2" stroke-linejoin="round"/>
<path d="M30.7333 45.8333C31.2958 45.8333 31.577 45.8333 31.7742 45.6901C31.8378 45.6438 31.8938 45.5878 31.9401 45.5242C32.0833 45.327 32.0833 45.0458 32.0833 44.4833V38.0167C32.0833 37.4542 32.0833 37.173 31.9401 36.9758C31.8938 36.9121 31.8378 36.8562 31.7742 36.8099C31.577 36.6667 31.2958 36.6667 30.7333 36.6667H24.2667C23.7042 36.6667 23.423 36.6667 23.2258 36.8099C23.1622 36.8562 23.1062 36.9121 23.0599 36.9758C22.9167 37.173 22.9167 37.4542 22.9167 38.0167V44.4833C22.9167 45.0458 22.9167 45.327 23.0599 45.5242C23.1062 45.5878 23.1622 45.6438 23.2258 45.6901C23.423 45.8333 23.7042 45.8333 24.2667 45.8333H30.7333Z" stroke="white" stroke-width="2" stroke-linejoin="round"/>
<path d="M30.7333 18.3333C31.2958 18.3333 31.577 18.3333 31.7742 18.1901C31.8378 18.1438 31.8938 18.0878 31.9401 18.0242C32.0833 17.827 32.0833 17.5458 32.0833 16.9833V10.5167C32.0833 9.9542 32.0833 9.67297 31.9401 9.47582C31.8938 9.41215 31.8378 9.35615 31.7742 9.30989C31.577 9.16666 31.2958 9.16666 30.7333 9.16666H24.2667C23.7042 9.16666 23.423 9.16666 23.2258 9.30989C23.1622 9.35615 23.1062 9.41215 23.0599 9.47582C22.9167 9.67297 22.9167 9.9542 22.9167 10.5167V16.9833C22.9167 17.5458 22.9167 17.827 23.0599 18.0242C23.1062 18.0878 23.1622 18.1438 23.2258 18.1901C23.423 18.3333 23.7042 18.3333 24.2667 18.3333H30.7333Z" stroke="white" stroke-width="2" stroke-linejoin="round"/>
<path d="M46.775 45.8333C47.3375 45.8333 47.6187 45.8333 47.8158 45.6901C47.8795 45.6438 47.9355 45.5878 47.9818 45.5242C48.125 45.327 48.125 45.0458 48.125 44.4833V38.0167C48.125 37.4542 48.125 37.173 47.9818 36.9758C47.9355 36.9121 47.8795 36.8562 47.8158 36.8099C47.6187 36.6667 47.3375 36.6667 46.775 36.6667H40.3083C39.7459 36.6667 39.4646 36.6667 39.2675 36.8099C39.2038 36.8562 39.1478 36.9121 39.1016 36.9758C38.9583 37.173 38.9583 37.4542 38.9583 38.0167V44.4833C38.9583 45.0458 38.9583 45.327 39.1016 45.5242C39.1478 45.5878 39.2038 45.6438 39.2675 45.6901C39.4646 45.8333 39.7459 45.8333 40.3083 45.8333H46.775Z" stroke="white" stroke-width="2" stroke-linejoin="round"/>
</svg>
