<svg width="24" height="24" viewBox="0 0 24 24" fill="none" xmlns="http://www.w3.org/2000/svg">
<path d="M6.55982 3H4.84018C4.13541 3 3.78303 3 3.63292 3.18636C3.58606 3.24454 3.55283 3.31248 3.53568 3.38519C3.48073 3.61808 3.69707 3.89624 4.12976 4.45255L16.7298 20.6525C16.8475 20.8039 16.9063 20.8796 16.985 20.9273C17.0109 20.9431 17.0382 20.9565 17.0666 20.9673C17.1525 21 17.2484 21 17.4402 21H19.1598C19.8646 21 20.217 21 20.3671 20.8136C20.4139 20.7555 20.4472 20.6875 20.4643 20.6148C20.5193 20.3819 20.3029 20.1038 19.8703 19.5475L19.8702 19.5475L7.27024 3.34745C7.15252 3.19609 7.09366 3.12042 7.01503 3.07266C6.98909 3.0569 6.96178 3.04354 6.93342 3.03274C6.84745 3 6.75158 3 6.55982 3Z" fill="#340E85" stroke="#340E85" stroke-width="1.5" stroke-linecap="round" stroke-linejoin="round"/>
<path d="M19.0898 2.64329C19.5629 2.14058 20.354 2.1166 20.8567 2.58975C21.3594 3.0629 21.3834 3.85399 20.9102 4.35671L19.0898 2.64329ZM4.91025 21.3567C4.4371 21.8594 3.64601 21.8834 3.14329 21.4102C2.64058 20.9371 2.6166 20.146 3.08975 19.6433L4.91025 21.3567ZM3.08975 19.6433L10.1052 12.1893L11.9257 13.9028L4.91025 21.3567L3.08975 19.6433ZM12.0898 10.0808L19.0898 2.64329L20.9102 4.35671L13.9102 11.7942L12.0898 10.0808Z" fill="#340E85"/>
</svg>
